[STREAM]
index=0
codec_name=prores
profile=0
codec_type=video
codec_time_base=0/1
codec_tag_string=apco
codec_tag=0x6f637061
width=1280
height=720
coded_width=1280
coded_height=720
closed_captions=0
has_b_frames=0
sample_aspect_ratio=1:1
display_aspect_ratio=16:9
pix_fmt=yuv422p10
level=-99
color_range=tv
color_space=bt2020nc
color_transfer=smpte2084
color_primaries=bt2020
chroma_location=unspecified
field_order=progressive
timecode=N/A
refs=1
id=N/A
r_frame_rate=60000/1001
avg_frame_rate=0/0
time_base=1001/60000
start_pts=0
start_time=0.000000
duration_ts=5
duration=0.083417
bit_rate=N/A
max_bit_rate=N/A
bits_per_raw_sample=10
nb_frames=N/A
nb_read_frames=N/A
nb_read_packets=N/A
DISPOSITION:default=0
DISPOSITION:dub=0
DISPOSITION:original=0
DISPOSITION:comment=0
DISPOSITION:lyrics=0
DISPOSITION:karaoke=0
DISPOSITION:forced=0
DISPOSITION:hearing_impaired=0
DISPOSITION:visual_impaired=0
DISPOSITION:clean_effects=0
DISPOSITION:attached_pic=0
DISPOSITION:timed_thumbnails=0
TAG:file_package_umid=0x060A2B340101010501010D201300000040ECCE167353449C92D6F2693A9F1D75
[SIDE_DATA]
side_data_type=Mastering display metadata
red_x=34000/50000
red_y=16000/50000
green_x=13250/50000
green_y=34500/50000
blue_x=7500/50000
blue_y=3000/50000
white_point_x=15635/50000
white_point_y=16450/50000
min_luminance=0/10000
max_luminance=10000000/10000
[/SIDE_DATA]
[SIDE_DATA]
side_data_type=Content light level metadata
max_content=1000
max_average=100
[/SIDE_DATA]
[/STREAM]
[STREAM]
index=1
codec_name=pcm_s24le
profile=unknown
codec_type=audio
codec_time_base=1/48000
codec_tag_string=[0][0][0][0]
codec_tag=0x0000
sample_fmt=s32
sample_rate=48000
channels=1
channel_layout=unknown
bits_per_sample=24
id=N/A
r_frame_rate=0/0
avg_frame_rate=0/0
time_base=1/48000
start_pts=0
start_time=0.000000
duration_ts=4004
duration=0.083417
bit_rate=1152000
max_bit_rate=N/A
bits_per_raw_sample=24
nb_frames=N/A
nb_read_frames=N/A
nb_read_packets=N/A
DISPOSITION:default=0
DISPOSITION:dub=0
DISPOSITION:original=0
DISPOSITION:comment=0
DISPOSITION:lyrics=0
DISPOSITION:karaoke=0
DISPOSITION:forced=0
DISPOSITION:hearing_impaired=0
DISPOSITION:visual_impaired=0
DISPOSITION:clean_effects=0
DISPOSITION:attached_pic=0
DISPOSITION:timed_thumbnails=0
TAG:file_package_umid=0x060A2B340101010501010D201300000040ECCE167353449C92D6F2693A9F1D75
[/STREAM]
[STREAM]
index=2
codec_name=pcm_s24le
profile=unknown
codec_type=audio
codec_time_base=1/48000
codec_tag_string=[0][0][0][0]
codec_tag=0x0000
sample_fmt=s32
sample_rate=48000
channels=1
channel_layout=unknown
bits_per_sample=24
id=N/A
r_frame_rate=0/0
avg_frame_rate=0/0
time_base=1/48000
start_pts=0
start_time=0.000000
duration_ts=4004
duration=0.083417
bit_rate=1152000
max_bit_rate=N/A
bits_per_raw_sample=24
nb_frames=N/A
nb_read_frames=N/A
nb_read_packets=N/A
DISPOSITION:default=0
DISPOSITION:dub=0
DISPOSITION:original=0
DISPOSITION:comment=0
DISPOSITION:lyrics=0
DISPOSITION:karaoke=0
DISPOSITION:forced=0
DISPOSITION:hearing_impaired=0
DISPOSITION:visual_impaired=0
DISPOSITION:clean_effects=0
DISPOSITION:attached_pic=0
DISPOSITION:timed_thumbnails=0
TAG:file_package_umid=0x060A2B340101010501010D201300000040ECCE167353449C92D6F2693A9F1D75
[/STREAM]
[FORMAT]
format_name=mxf
duration=0.083417
bit_rate=30913698
TAG:operational_pattern_ul=060e2b34.04010101.0d010201.01010900
TAG:uid=0002475a-49e3-430b-85d9-3b35d180e3b5
TAG:generation_uid=240f15ec-50ee-4285-83bf-7c17122fac0c
TAG:company_name=Apple Inc.
TAG:product_name=Compressor
TAG:product_version=4.4.7 (4.4.7)
TAG:product_uid=00000000-0000-0000-0000-000000000000
TAG:modification_date=2020-09-08T16:18:57.036000Z
TAG:material_package_umid=0x060A2B340101010501010D201300000045843C9FE69D4B8FA90DDAAA1602A2E8
TAG:timecode=00:01:15;26
[/FORMAT]
